<svg width="18" height="22" viewBox="0 0 18 22" fill="none" xmlns="http://www.w3.org/2000/svg">
<path d="M5.53844 8.06667C5.72205 8.06667 5.89815 8.14393 6.02798 8.28146C6.15781 8.41898 6.23075 8.60551 6.23075 8.8V17.6C6.23075 17.7945 6.15781 17.981 6.02798 18.1185C5.89815 18.2561 5.72205 18.3333 5.53844 18.3333C5.35483 18.3333 5.17874 18.2561 5.04891 18.1185C4.91907 17.981 4.84614 17.7945 4.84614 17.6V8.8C4.84614 8.60551 4.91907 8.41898 5.04891 8.28146C5.17874 8.14393 5.35483 8.06667 5.53844 8.06667ZM8.99998 8.06667C9.18359 8.06667 9.35968 8.14393 9.48952 8.28146C9.61935 8.41898 9.69229 8.60551 9.69229 8.8V17.6C9.69229 17.7945 9.61935 17.981 9.48952 18.1185C9.35968 18.2561 9.18359 18.3333 8.99998 18.3333C8.81637 18.3333 8.64028 18.2561 8.51045 18.1185C8.38061 17.981 8.30767 17.7945 8.30767 17.6V8.8C8.30767 8.60551 8.38061 8.41898 8.51045 8.28146C8.64028 8.14393 8.81637 8.06667 8.99998 8.06667ZM13.1538 8.8C13.1538 8.60551 13.0809 8.41898 12.9511 8.28146C12.8212 8.14393 12.6451 8.06667 12.4615 8.06667C12.2779 8.06667 12.1018 8.14393 11.972 8.28146C11.8422 8.41898 11.7692 8.60551 11.7692 8.8V17.6C11.7692 17.7945 11.8422 17.981 11.972 18.1185C12.1018 18.2561 12.2779 18.3333 12.4615 18.3333C12.6451 18.3333 12.8212 18.2561 12.9511 18.1185C13.0809 17.981 13.1538 17.7945 13.1538 17.6V8.8Z" fill="#767676"/>
<path fill-rule="evenodd" clip-rule="evenodd" d="M18 4.4C18 4.78898 17.8541 5.16204 17.5945 5.43709C17.3348 5.71214 16.9826 5.86667 16.6154 5.86667H15.9231V19.0667C15.9231 19.8446 15.6313 20.5907 15.112 21.1408C14.5927 21.691 13.8883 22 13.1538 22H4.84615C4.11171 22 3.40734 21.691 2.88801 21.1408C2.36868 20.5907 2.07692 19.8446 2.07692 19.0667V5.86667H1.38462C1.01739 5.86667 0.66521 5.71214 0.405544 5.43709C0.145879 5.16204 0 4.78898 0 4.4V2.93333C0 2.54435 0.145879 2.1713 0.405544 1.89624C0.66521 1.62119 1.01739 1.46667 1.38462 1.46667H6.23077C6.23077 1.07768 6.37665 0.70463 6.63631 0.429577C6.89598 0.154523 7.24816 0 7.61538 0H10.3846C10.7518 0 11.104 0.154523 11.3637 0.429577C11.6234 0.70463 11.7692 1.07768 11.7692 1.46667H16.6154C16.9826 1.46667 17.3348 1.62119 17.5945 1.89624C17.8541 2.1713 18 2.54435 18 2.93333V4.4ZM3.62492 5.86667L3.46154 5.9532V19.0667C3.46154 19.4557 3.60742 19.8287 3.86708 20.1038C4.12675 20.3788 4.47893 20.5333 4.84615 20.5333H13.1538C13.5211 20.5333 13.8733 20.3788 14.1329 20.1038C14.3926 19.8287 14.5385 19.4557 14.5385 19.0667V5.9532L14.3751 5.86667H3.62492ZM1.38462 4.4V2.93333H16.6154V4.4H1.38462Z" fill="#767676"/>
</svg>
