<svg width="22" height="22" viewBox="0 0 22 22" fill="none" xmlns="http://www.w3.org/2000/svg">
<path d="M13.9068 22H7.83836C2.34645 22 0 19.6536 0 14.1618V8.09351C0 2.60172 2.34645 0.255314 7.83836 0.255314H9.86116C10.2758 0.255314 10.6197 0.599184 10.6197 1.01385C10.6197 1.42852 10.2758 1.77239 9.86116 1.77239H7.83836C3.1758 1.77239 1.5171 3.43105 1.5171 8.09351V14.1618C1.5171 18.8243 3.1758 20.4829 7.83836 20.4829H13.9068C18.5693 20.4829 20.228 18.8243 20.228 14.1618V12.139C20.228 11.7244 20.5719 11.3805 20.9866 11.3805C21.4013 11.3805 21.7451 11.7244 21.7451 12.139V14.1618C21.7451 19.6536 19.3987 22 13.9068 22Z" fill="#767676"/>
<path d="M7.332 16.8825C6.71504 16.8825 6.14866 16.66 5.73398 16.2555C5.2384 15.7599 5.026 15.0418 5.13726 14.2833L5.57216 11.239C5.65307 10.6524 6.0374 9.89387 6.45208 9.47921L14.4219 1.50949C16.4346 -0.503162 18.4776 -0.503162 20.4903 1.50949C21.5927 2.61189 22.0883 3.73452 21.9871 4.85716C21.8961 5.7674 21.4107 6.65741 20.4903 7.56766L12.5204 15.5374C12.1058 15.952 11.3472 16.3364 10.7606 16.4173L7.71633 16.8522C7.58485 16.8825 7.45337 16.8825 7.332 16.8825ZM15.494 2.58155L7.52416 10.5513C7.332 10.7434 7.10949 11.1884 7.06903 11.4514L6.63413 14.4957C6.59367 14.789 6.65436 15.0317 6.80607 15.1834C6.95778 15.3351 7.20052 15.3958 7.49382 15.3553L10.5381 14.9204C10.8011 14.88 11.2562 14.6575 11.4382 14.4653L19.4081 6.49559C20.0655 5.8382 20.4094 5.2516 20.4599 4.70545C20.5206 4.04805 20.1767 3.3502 19.4081 2.57144C17.7898 0.953227 16.6773 1.40835 15.494 2.58155Z" fill="#767676"/>
<path d="M18.8117 8.93274C18.7409 8.93274 18.6701 8.92263 18.6094 8.9024C15.9494 8.15398 13.8356 6.04019 13.0871 3.38026C12.9759 2.97571 13.2085 2.56104 13.6131 2.43968C14.0176 2.32842 14.4323 2.56104 14.5436 2.96559C15.1504 5.11984 16.8597 6.82907 19.0139 7.4359C19.4185 7.54715 19.6511 7.97193 19.5399 8.37648C19.4488 8.72035 19.1454 8.93274 18.8117 8.93274Z" fill="#767676"/>
</svg>
