<svg width="49" height="49" viewBox="0 0 49 49" fill="none" xmlns="http://www.w3.org/2000/svg">
<path d="M49 24.5C49 11.0005 37.9995 0 24.5 0C11.0005 0 0 11.0005 0 24.5C0 31.605 3.0625 37.9995 7.9135 42.483C7.9135 42.5075 7.9135 42.5075 7.889 42.532C8.134 42.777 8.428 42.973 8.673 43.1935C8.82 43.316 8.9425 43.4385 9.0895 43.5365C9.5305 43.904 10.0205 44.247 10.486 44.59C10.6575 44.7125 10.8045 44.8105 10.976 44.933C11.4415 45.2515 11.9315 45.5455 12.446 45.815C12.6175 45.913 12.8135 46.0355 12.985 46.1335C13.475 46.403 13.9895 46.648 14.5285 46.8685C14.7245 46.9665 14.9205 47.0645 15.1165 47.138C15.6555 47.3585 16.1945 47.5545 16.7335 47.726C16.9295 47.7995 17.1255 47.873 17.3215 47.922C17.9095 48.0935 18.4975 48.2405 19.0855 48.3875C19.257 48.4365 19.4285 48.4855 19.6245 48.51C20.3105 48.657 20.9965 48.755 21.707 48.8285C21.805 48.8285 21.903 48.853 22.001 48.8775C22.834 48.951 23.667 49 24.5 49C25.333 49 26.166 48.951 26.9745 48.8775C27.0725 48.8775 27.1705 48.853 27.2685 48.8285C27.979 48.755 28.665 48.657 29.351 48.51C29.5225 48.4855 29.694 48.412 29.89 48.3875C30.478 48.2405 31.0905 48.118 31.654 47.922C31.85 47.8485 32.046 47.775 32.242 47.726C32.781 47.53 33.3445 47.3585 33.859 47.138C34.055 47.0645 34.251 46.9665 34.447 46.8685C34.9615 46.648 35.476 46.403 35.9905 46.1335C36.1865 46.0355 36.358 45.913 36.5295 45.815C37.0195 45.521 37.5095 45.2515 37.9995 44.933C38.171 44.835 38.318 44.7125 38.4895 44.59C38.9795 44.247 39.445 43.904 39.886 43.5365C40.033 43.414 40.1555 43.2915 40.3025 43.1935C40.572 42.973 40.8415 42.7525 41.0865 42.532C41.0865 42.5075 41.0865 42.5075 41.062 42.483C45.9375 37.9995 49 31.605 49 24.5ZM36.603 36.6765C29.9635 32.2175 19.0855 32.2175 12.397 36.6765C11.319 37.387 10.437 38.22 9.702 39.1265C5.978 35.3535 3.675 30.184 3.675 24.5C3.675 13.0095 13.0095 3.675 24.5 3.675C35.9905 3.675 45.325 13.0095 45.325 24.5C45.325 30.184 43.022 35.3535 39.298 39.1265C38.5875 38.22 37.681 37.387 36.603 36.6765Z" fill="#096667"/>
<path d="M24.5 12.0777C19.4285 12.0777 15.3125 16.1937 15.3125 21.2653C15.3125 26.2388 19.208 30.2813 24.3775 30.4283H24.8185C29.7675 30.2568 33.663 26.2388 33.6875 21.2653C33.6875 16.1937 29.5715 12.0777 24.5 12.0777Z" fill="#096667"/>
</svg>
